<svg xmlns="http://www.w3.org/2000/svg" width="1200" height="700" viewBox="0 0 1200 700"><rect width="100%" height="100%" fill="#EDEDED" /><text x="1144" y="72" text-anchor="end" font-family="'Noto Sans TC','PingFang TC','Microsoft JhengHei',sans-serif" font-size="24" font-weight="400" fill="#9CA3AF">n = 2,165 websites</text><path d="M 610 360 L 610 66 A 294 294 0 0 1 798.9432427423728 585.2475327767138 Z" fill="#DC2626" /><path d="M 610 360 L 798.9432427423728 585.2475327767138 A 294 294 0 1 1 422.0391024256852 133.93208767483623 Z" fill="#F59E0B" /><path d="M 610 360 L 422.0391024256852 133.93208767483623 A 294 294 0 0 1 610 66 Z" fill="#3B82F6" /><circle cx="871.2422127964682" cy="264.939460062522" r="4" fill="#9CA3AF" /><polyline points="871.2422127964682,264.939460062522 948,259.8102942385574 1140,259.8102942385574" fill="none" stroke="#6B7280" stroke-width="2.5" /><text x="1140" y="251.8102942385574" text-anchor="end" font-family="'Noto Sans TC','PingFang TC','Microsoft JhengHei',sans-serif" font-size="48" font-weight="400" fill="#6B7280">Immobile</text><text x="1140" y="307.8102942385574" text-anchor="end" font-family="'Noto Sans TC','PingFang TC','Microsoft JhengHei',sans-serif" font-size="43" font-weight="400" fill="#6B7280">38.9%</text><circle cx="396.6224643748842" cy="538.1965973035187" r="4" fill="#9CA3AF" /><polyline points="396.6224643748842,538.1965973035187 264,571.8115216184568 72,571.8115216184568" fill="none" stroke="#6B7280" stroke-width="2.5" /><text x="72" y="563.8115216184568" text-anchor="start" font-family="'Noto Sans TC','PingFang TC','Microsoft JhengHei',sans-serif" font-size="48" font-weight="400" fill="#6B7280">Intl. cloud</text><text x="72" y="619.8115216184568" text-anchor="start" font-family="'Noto Sans TC','PingFang TC','Microsoft JhengHei',sans-serif" font-size="43" font-weight="400" fill="#6B7280">50.1%</text><circle cx="515.5083106283437" cy="98.55149524296297" r="4" fill="#9CA3AF" /><polyline points="515.5083106283437,98.55149524296297 264,134.4445615330509 72,134.4445615330509" fill="none" stroke="#6B7280" stroke-width="2.5" /><text x="72" y="122.44456153305089" text-anchor="start" font-family="'Noto Sans TC','PingFang TC','Microsoft JhengHei',sans-serif" font-size="48" font-weight="400" fill="#6B7280">Relocatable</text><text x="72" y="178.4445615330509" text-anchor="start" font-family="'Noto Sans TC','PingFang TC','Microsoft JhengHei',sans-serif" font-size="43" font-weight="400" fill="#6B7280">11.0%</text><text x="1144" y="680" text-anchor="end" font-family="'Noto Sans TC','PingFang TC','Microsoft JhengHei',sans-serif" font-size="19" font-weight="400" fill="#9CA3AF">Data snapshot: 2026-07-20</text></svg>