<svg xmlns="http://www.w3.org/2000/svg" width="1200" height="700" viewBox="0 0 1200 700"><rect width="100%" height="100%" fill="#EDEDED" /><text x="1144" y="72" text-anchor="end" font-family="'Noto Sans TC','PingFang TC','Microsoft JhengHei',sans-serif" font-size="24" font-weight="400" fill="#9CA3AF">n = 1,859 websites</text><path d="M 610 360 L 610 66 A 294 294 0 0 1 664.8265414384385 648.8426048108194 Z" fill="#DC2626" /><path d="M 610 360 L 664.8265414384385 648.8426048108194 A 294 294 0 0 1 427.6110735249055 129.41318446350283 Z" fill="#F59E0B" /><path d="M 610 360 L 427.6110735249055 129.41318446350283 A 294 294 0 0 1 610 66 Z" fill="#3B82F6" /><circle cx="886.7781346740967" cy="333.9641753284516" r="4" fill="#9CA3AF" /><polyline points="886.7781346740967,333.9641753284516 948,332.55936464473496 1140,332.55936464473496" fill="none" stroke="#6B7280" stroke-width="2.5" /><text x="1140" y="324.55936464473496" text-anchor="end" font-family="'Noto Sans TC','PingFang TC','Microsoft JhengHei',sans-serif" font-size="48" font-weight="400" fill="#6B7280">不會動</text><text x="1140" y="380.55936464473496" text-anchor="end" font-family="'Noto Sans TC','PingFang TC','Microsoft JhengHei',sans-serif" font-size="43" font-weight="400" fill="#6B7280">47.0%</text><circle cx="357.12230529144387" cy="475.4853736145244" r="4" fill="#9CA3AF" /><polyline points="357.12230529144387,475.4853736145244 264,505.7165988095527 72,505.7165988095527" fill="none" stroke="#6B7280" stroke-width="2.5" /><text x="72" y="497.7165988095527" text-anchor="start" font-family="'Noto Sans TC','PingFang TC','Microsoft JhengHei',sans-serif" font-size="48" font-weight="400" fill="#6B7280">國際雲</text><text x="72" y="553.7165988095527" text-anchor="start" font-family="'Noto Sans TC','PingFang TC','Microsoft JhengHei',sans-serif" font-size="43" font-weight="400" fill="#6B7280">42.3%</text><circle cx="518.7052267324033" cy="97.41808064145374" r="4" fill="#9CA3AF" /><polyline points="518.7052267324033,97.41808064145374 264,133.2499914674314 72,133.2499914674314" fill="none" stroke="#6B7280" stroke-width="2.5" /><text x="72" y="121.24999146743141" text-anchor="start" font-family="'Noto Sans TC','PingFang TC','Microsoft JhengHei',sans-serif" font-size="48" font-weight="400" fill="#6B7280">可能會動</text><text x="72" y="177.2499914674314" text-anchor="start" font-family="'Noto Sans TC','PingFang TC','Microsoft JhengHei',sans-serif" font-size="43" font-weight="400" fill="#6B7280">10.7%</text><text x="1144" y="680" text-anchor="end" font-family="'Noto Sans TC','PingFang TC','Microsoft JhengHei',sans-serif" font-size="19" font-weight="400" fill="#9CA3AF">Data snapshot: 2026-05-06</text></svg>