<svg xmlns="http://www.w3.org/2000/svg" width="1200" height="700" viewBox="0 0 1200 700"><rect width="100%" height="100%" fill="#EDEDED" /><text x="1144" y="72" text-anchor="end" font-family="'Noto Sans TC','PingFang TC','Microsoft JhengHei',sans-serif" font-size="24" font-weight="400" fill="#9CA3AF">n = 2,180 websites</text><path d="M 610 360 L 610 66 A 294 294 0 0 1 799.483952730968 584.7928638935148 Z" fill="#DC2626" /><path d="M 610 360 L 799.483952730968 584.7928638935148 A 294 294 0 1 1 421.8149819684004 134.1186174372785 Z" fill="#F59E0B" /><path d="M 610 360 L 421.8149819684004 134.1186174372785 A 294 294 0 0 1 609.9999999999997 66 Z" fill="#3B82F6" /><circle cx="871.1278119465977" cy="264.62565424611125" r="4" fill="#9CA3AF" /><polyline points="871.1278119465977,264.62565424611125 948,259.47955645363527 1140,259.47955645363527" fill="none" stroke="#6B7280" stroke-width="2.5" /><text x="1140" y="251.47955645363527" text-anchor="end" font-family="'Noto Sans TC','PingFang TC','Microsoft JhengHei',sans-serif" font-size="48" font-weight="400" fill="#6B7280">Immobile</text><text x="1140" y="307.47955645363527" text-anchor="end" font-family="'Noto Sans TC','PingFang TC','Microsoft JhengHei',sans-serif" font-size="43" font-weight="400" fill="#6B7280">38.9%</text><circle cx="396.92523656282066" cy="538.5585203405036" r="4" fill="#9CA3AF" /><polyline points="396.92523656282066,538.5585203405036 264,572.1929728768617 72,572.1929728768617" fill="none" stroke="#6B7280" stroke-width="2.5" /><text x="72" y="564.1929728768617" text-anchor="start" font-family="'Noto Sans TC','PingFang TC','Microsoft JhengHei',sans-serif" font-size="48" font-weight="400" fill="#6B7280">Intl. cloud</text><text x="72" y="620.1929728768617" text-anchor="start" font-family="'Noto Sans TC','PingFang TC','Microsoft JhengHei',sans-serif" font-size="43" font-weight="400" fill="#6B7280">50.1%</text><circle cx="515.3786706422582" cy="98.59838556241897" r="4" fill="#9CA3AF" /><polyline points="515.3786706422582,98.59838556241897 264,134.49398190571497 72,134.49398190571497" fill="none" stroke="#6B7280" stroke-width="2.5" /><text x="72" y="122.49398190571497" text-anchor="start" font-family="'Noto Sans TC','PingFang TC','Microsoft JhengHei',sans-serif" font-size="48" font-weight="400" fill="#6B7280">Relocatable</text><text x="72" y="178.49398190571497" text-anchor="start" font-family="'Noto Sans TC','PingFang TC','Microsoft JhengHei',sans-serif" font-size="43" font-weight="400" fill="#6B7280">11.1%</text><text x="1144" y="680" text-anchor="end" font-family="'Noto Sans TC','PingFang TC','Microsoft JhengHei',sans-serif" font-size="19" font-weight="400" fill="#9CA3AF">Data snapshot: 2026-07-20</text></svg>