<svg xmlns="http://www.w3.org/2000/svg" width="1200" height="700" viewBox="0 0 1200 700"><rect width="100%" height="100%" fill="#EDEDED" /><text x="1144" y="72" text-anchor="end" font-family="'Noto Sans TC','PingFang TC','Microsoft JhengHei',sans-serif" font-size="24" font-weight="400" fill="#9CA3AF">n = 1,878 websites</text><path d="M 610 360 L 610 66 A 294 294 0 0 1 793.9096076205825 589.375796946503 Z" fill="#DC2626" /><path d="M 610 360 L 793.9096076205825 589.375796946503 A 294 294 0 1 1 445.0811940792653 116.61185843661357 Z" fill="#F59E0B" /><path d="M 610 360 L 445.0811940792653 116.61185843661357 A 294 294 0 0 1 610 66 Z" fill="#3B82F6" /><circle cx="872.2786565707167" cy="267.8376090400213" r="4" fill="#9CA3AF" /><polyline points="872.2786565707167,267.8376090400213 948,262.8648181608857 1140,262.8648181608857" fill="none" stroke="#6B7280" stroke-width="2.5" /><text x="1140" y="254.8648181608857" text-anchor="end" font-family="'Noto Sans TC','PingFang TC','Microsoft JhengHei',sans-serif" font-size="48" font-weight="400" fill="#6B7280">不會動</text><text x="1140" y="310.8648181608857" text-anchor="end" font-family="'Noto Sans TC','PingFang TC','Microsoft JhengHei',sans-serif" font-size="43" font-weight="400" fill="#6B7280">39.2%</text><circle cx="386.30209341340355" cy="525.0552834318684" r="4" fill="#9CA3AF" /><polyline points="386.30209341340355,525.0552834318684 264,557.9611440486958 72,557.9611440486958" fill="none" stroke="#6B7280" stroke-width="2.5" /><text x="72" y="549.9611440486958" text-anchor="start" font-family="'Noto Sans TC','PingFang TC','Microsoft JhengHei',sans-serif" font-size="48" font-weight="400" fill="#6B7280">國際雲</text><text x="72" y="605.9611440486958" text-anchor="start" font-family="'Noto Sans TC','PingFang TC','Microsoft JhengHei',sans-serif" font-size="43" font-weight="400" fill="#6B7280">51.3%</text><circle cx="528.4390500911991" cy="94.23353964434477" r="4" fill="#9CA3AF" /><polyline points="528.4390500911991,94.23353964434477 264,129.89362271867992 72,129.89362271867992" fill="none" stroke="#6B7280" stroke-width="2.5" /><text x="72" y="117.89362271867992" text-anchor="start" font-family="'Noto Sans TC','PingFang TC','Microsoft JhengHei',sans-serif" font-size="48" font-weight="400" fill="#6B7280">可能會動</text><text x="72" y="173.89362271867992" text-anchor="start" font-family="'Noto Sans TC','PingFang TC','Microsoft JhengHei',sans-serif" font-size="43" font-weight="400" fill="#6B7280">9.5%</text><text x="1144" y="680" text-anchor="end" font-family="'Noto Sans TC','PingFang TC','Microsoft JhengHei',sans-serif" font-size="19" font-weight="400" fill="#9CA3AF">Data snapshot: 2026-06-26</text></svg>