<svg xmlns="http://www.w3.org/2000/svg" width="1200" height="700" viewBox="0 0 1200 700"><rect width="100%" height="100%" fill="#EDEDED" /><text x="1144" y="72" text-anchor="end" font-family="'Noto Sans TC','PingFang TC','Microsoft JhengHei',sans-serif" font-size="24" font-weight="400" fill="#9CA3AF">n = 2,179 個網站</text><path d="M 610 360 L 610 66 A 294 294 0 0 1 793.3296722369444 589.8395772653059 Z" fill="#DC2626" /><path d="M 610 360 L 793.3296722369444 589.8395772653059 A 294 294 0 0 1 420.4438042154452 135.26805158214037 Z" fill="#F59E0B" /><path d="M 610 360 L 420.4438042154452 135.26805158214037 A 294 294 0 0 1 610 66 Z" fill="#3B82F6" /><circle cx="872.3948376631391" cy="268.168909579953" r="4" fill="#9CA3AF" /><polyline points="872.3948376631391,268.168909579953 948,263.213994629231 1140,263.213994629231" fill="none" stroke="#6B7280" stroke-width="2.5" /><text x="1140" y="255.21399462923102" text-anchor="end" font-family="'Noto Sans TC','PingFang TC','Microsoft JhengHei',sans-serif" font-size="48" font-weight="400" fill="#6B7280">不會動</text><text x="1140" y="311.213994629231" text-anchor="end" font-family="'Noto Sans TC','PingFang TC','Microsoft JhengHei',sans-serif" font-size="43" font-weight="400" fill="#6B7280">39.3%</text><circle cx="395.0633696492581" cy="536.3129176591112" r="4" fill="#9CA3AF" /><polyline points="395.0633696492581,536.3129176591112 264,569.826204583164 72,569.826204583164" fill="none" stroke="#6B7280" stroke-width="2.5" /><text x="72" y="561.826204583164" text-anchor="start" font-family="'Noto Sans TC','PingFang TC','Microsoft JhengHei',sans-serif" font-size="48" font-weight="400" fill="#6B7280">國際雲</text><text x="72" y="617.826204583164" text-anchor="start" font-family="'Noto Sans TC','PingFang TC','Microsoft JhengHei',sans-serif" font-size="43" font-weight="400" fill="#6B7280">49.6%</text><circle cx="514.5836896735335" cy="98.88751901970784" r="4" fill="#9CA3AF" /><polyline points="514.5836896735335,98.88751901970784 264,134.7987160891165 72,134.7987160891165" fill="none" stroke="#6B7280" stroke-width="2.5" /><text x="72" y="122.79871608911651" text-anchor="start" font-family="'Noto Sans TC','PingFang TC','Microsoft JhengHei',sans-serif" font-size="48" font-weight="400" fill="#6B7280">可能會動</text><text x="72" y="178.7987160891165" text-anchor="start" font-family="'Noto Sans TC','PingFang TC','Microsoft JhengHei',sans-serif" font-size="43" font-weight="400" fill="#6B7280">11.2%</text><text x="1144" y="680" text-anchor="end" font-family="'Noto Sans TC','PingFang TC','Microsoft JhengHei',sans-serif" font-size="19" font-weight="400" fill="#9CA3AF">資料日期: 2026-07-21</text></svg>