<svg xmlns="http://www.w3.org/2000/svg" width="1200" height="700" viewBox="0 0 1200 700"><rect width="100%" height="100%" fill="#EDEDED" /><text x="1144" y="72" text-anchor="end" font-family="'Noto Sans TC','PingFang TC','Microsoft JhengHei',sans-serif" font-size="24" font-weight="400" fill="#9CA3AF">n = 1,859 websites</text><path d="M 610 360 L 610 66 A 294 294 0 0 1 664.8265414384385 648.8426048108194 Z" fill="#DC2626" /><path d="M 610 360 L 664.8265414384385 648.8426048108194 A 294 294 0 0 1 519.1017525222198 80.404741446733 Z" fill="#F59E0B" /><path d="M 610 360 L 519.1017525222198 80.404741446733 A 294 294 0 0 1 610 66 Z" fill="#3B82F6" /><circle cx="886.7781346740967" cy="333.9641753284516" r="4" fill="#9CA3AF" /><polyline points="886.7781346740967,333.9641753284516 948,332.55936464473496 1140,332.55936464473496" fill="none" stroke="#6B7280" stroke-width="2.5" /><text x="1140" y="324.55936464473496" text-anchor="end" font-family="'Noto Sans TC','PingFang TC','Microsoft JhengHei',sans-serif" font-size="48" font-weight="400" fill="#6B7280">不會動</text><text x="1140" y="380.55936464473496" text-anchor="end" font-family="'Noto Sans TC','PingFang TC','Microsoft JhengHei',sans-serif" font-size="43" font-weight="400" fill="#6B7280">47.0%</text><circle cx="340.7081960903612" cy="429.035674452363" r="4" fill="#9CA3AF" /><polyline points="340.7081960903612,429.035674452363 264,456.76062091562005 72,456.76062091562005" fill="none" stroke="#6B7280" stroke-width="2.5" /><text x="72" y="448.76062091562005" text-anchor="start" font-family="'Noto Sans TC','PingFang TC','Microsoft JhengHei',sans-serif" font-size="48" font-weight="400" fill="#6B7280">國際雲</text><text x="72" y="504.76062091562005" text-anchor="start" font-family="'Noto Sans TC','PingFang TC','Microsoft JhengHei',sans-serif" font-size="43" font-weight="400" fill="#6B7280">48.0%</text><circle cx="566.488017953896" cy="85.4263169595099" r="4" fill="#9CA3AF" /><polyline points="566.488017953896,85.4263169595099 264,120.61119017674963 72,120.61119017674963" fill="none" stroke="#6B7280" stroke-width="2.5" /><text x="72" y="108.61119017674963" text-anchor="start" font-family="'Noto Sans TC','PingFang TC','Microsoft JhengHei',sans-serif" font-size="48" font-weight="400" fill="#6B7280">可能會動</text><text x="72" y="164.61119017674963" text-anchor="start" font-family="'Noto Sans TC','PingFang TC','Microsoft JhengHei',sans-serif" font-size="43" font-weight="400" fill="#6B7280">5.0%</text><text x="1144" y="680" text-anchor="end" font-family="'Noto Sans TC','PingFang TC','Microsoft JhengHei',sans-serif" font-size="19" font-weight="400" fill="#9CA3AF">Data snapshot: 2026-03-21</text></svg>