<svg xmlns="http://www.w3.org/2000/svg" width="1200" height="700" viewBox="0 0 1200 700"><rect width="100%" height="100%" fill="#EDEDED" /><text x="1144" y="72" text-anchor="end" font-family="'Noto Sans TC','PingFang TC','Microsoft JhengHei',sans-serif" font-size="24" font-weight="400" fill="#9CA3AF">n = 18,703 requests</text><path d="M 610 360 L 610 66 A 294 294 0 0 1 788.9970813087721 593.2295969274501 Z" fill="#F44336" /><path d="M 610 360 L 788.9970813087721 593.2295969274501 A 294 294 0 0 1 496.8013591467354 631.3338676040528 Z" fill="#FFC107" /><path d="M 610 360 L 496.8013591467354 631.3338676040528 A 294 294 0 0 1 354.7326349045446 505.8580553731041 Z" fill="#3DAA57" /><path d="M 610 360 L 354.7326349045446 505.8580553731041 A 294 294 0 0 1 316.0068030381115 362.0000350317485 Z" fill="#FF7A00" /><path d="M 610 360 L 316.0068030381115 362.0000350317485 A 294 294 0 0 1 349.2666541337519 224.15404918293862 Z" fill="#4CB5BE" /><path d="M 610 360 L 349.2666541337519 224.15404918293862 A 294 294 0 0 1 379.8251861543898 177.09140241328544 Z" fill="#6F9EE8" /><path d="M 610 360 L 379.8251861543898 177.09140241328544 A 294 294 0 0 1 402.80141378650495 151.42208680896036 Z" fill="#E97A75" /><path d="M 610 360 L 402.80141378650495 151.42208680896036 A 294 294 0 0 1 427.691299341692 129.34975034854298 Z" fill="#F2CC55" /><path d="M 610 360 L 427.691299341692 129.34975034854298 A 294 294 0 0 1 453.3242993231042 111.22555433203402 Z" fill="#67C587" /><path d="M 610 360 L 453.3242993231042 111.22555433203402 A 294 294 0 0 1 610 66 Z" fill="#C5CCD8" /><circle cx="532.9011176815341" cy="92.90495634466868" r="4" fill="#9CA3AF" /><polyline points="532.9011176815341,92.90495634466868 276,69.84639142478397 36,69.84639142478397" fill="none" stroke="#6B7280" stroke-width="2.5" /><text x="36" y="61.846391424783974" text-anchor="start" font-family="'Noto Sans TC','PingFang TC','Microsoft JhengHei',sans-serif" font-size="22" font-weight="400" fill="#6B7280">Others (&lt;1%)</text><text x="36" y="90.84639142478397" text-anchor="start" font-family="'Noto Sans TC','PingFang TC','Microsoft JhengHei',sans-serif" font-size="21" font-weight="400" fill="#6B7280">8.9%</text><circle cx="449.5029544345598" cy="133.0094751652285" r="4" fill="#9CA3AF" /><polyline points="449.5029544345598,133.0094751652285 276,129.84639142478397 36,129.84639142478397" fill="none" stroke="#6B7280" stroke-width="2.5" /><text x="36" y="121.84639142478397" text-anchor="start" font-family="'Noto Sans TC','PingFang TC','Microsoft JhengHei',sans-serif" font-size="22" font-weight="400" fill="#6B7280">Taiwan Academic (TANet)</text><text x="36" y="150.84639142478397" text-anchor="start" font-family="'Noto Sans TC','PingFang TC','Microsoft JhengHei',sans-serif" font-size="21" font-weight="400" fill="#6B7280">1.7%</text><circle cx="425.54975363738595" cy="152.00455145179026" r="4" fill="#9CA3AF" /><polyline points="425.54975363738595,152.00455145179026 276,189.84639142478397 36,189.84639142478397" fill="none" stroke="#6B7280" stroke-width="2.5" /><text x="36" y="181.84639142478397" text-anchor="start" font-family="'Noto Sans TC','PingFang TC','Microsoft JhengHei',sans-serif" font-size="22" font-weight="400" fill="#6B7280">Microsoft</text><text x="36" y="210.84639142478397" text-anchor="start" font-family="'Noto Sans TC','PingFang TC','Microsoft JhengHei',sans-serif" font-size="21" font-weight="400" fill="#6B7280">1.8%</text><circle cx="402.8587889219913" cy="174.59094231096523" r="4" fill="#9CA3AF" /><polyline points="402.8587889219913,174.59094231096523 276,249.84639142478397 36,249.84639142478397" fill="none" stroke="#6B7280" stroke-width="2.5" /><text x="36" y="241.84639142478397" text-anchor="start" font-family="'Noto Sans TC','PingFang TC','Microsoft JhengHei',sans-serif" font-size="22" font-weight="400" fill="#6B7280">Fastly</text><text x="36" y="270.846391424784" text-anchor="start" font-family="'Noto Sans TC','PingFang TC','Microsoft JhengHei',sans-serif" font-size="21" font-weight="400" fill="#6B7280">1.9%</text><circle cx="376.8398333997726" cy="208.6053610230725" r="4" fill="#9CA3AF" /><polyline points="376.8398333997726,208.6053610230725 276,309.846391424784 36,309.846391424784" fill="none" stroke="#6B7280" stroke-width="2.5" /><text x="36" y="301.846391424784" text-anchor="start" font-family="'Noto Sans TC','PingFang TC','Microsoft JhengHei',sans-serif" font-size="22" font-weight="400" fill="#6B7280">Akamai</text><text x="36" y="330.846391424784" text-anchor="start" font-family="'Noto Sans TC','PingFang TC','Microsoft JhengHei',sans-serif" font-size="21" font-weight="400" fill="#6B7280">3.0%</text><circle cx="339.75519182300235" cy="294.7946041084194" r="4" fill="#9CA3AF" /><polyline points="339.75519182300235,294.7946041084194 276,369.846391424784 36,369.846391424784" fill="none" stroke="#6B7280" stroke-width="2.5" /><text x="36" y="361.846391424784" text-anchor="start" font-family="'Noto Sans TC','PingFang TC','Microsoft JhengHei',sans-serif" font-size="22" font-weight="400" fill="#6B7280">Facebook</text><text x="36" y="390.846391424784" text-anchor="start" font-family="'Noto Sans TC','PingFang TC','Microsoft JhengHei',sans-serif" font-size="21" font-weight="400" fill="#6B7280">7.8%</text><circle cx="341.5563957652515" cy="432.2636239435703" r="4" fill="#9CA3AF" /><polyline points="341.5563957652515,432.2636239435703 276,438.50221018330296 36,438.50221018330296" fill="none" stroke="#6B7280" stroke-width="2.5" /><text x="36" y="430.50221018330296" text-anchor="start" font-family="'Noto Sans TC','PingFang TC','Microsoft JhengHei',sans-serif" font-size="22" font-weight="400" fill="#6B7280">Data Communication (CHT)</text><text x="36" y="459.50221018330296" text-anchor="start" font-family="'Noto Sans TC','PingFang TC','Microsoft JhengHei',sans-serif" font-size="21" font-weight="400" fill="#6B7280">8.2%</text><circle cx="425.9693786421566" cy="568.3668169422522" r="4" fill="#9CA3AF" /><polyline points="425.9693786421566,568.3668169422522 276,586.3553191243172 36,586.3553191243172" fill="none" stroke="#6B7280" stroke-width="2.5" /><text x="36" y="578.3553191243172" text-anchor="start" font-family="'Noto Sans TC','PingFang TC','Microsoft JhengHei',sans-serif" font-size="22" font-weight="400" fill="#6B7280">Amazon</text><text x="36" y="607.3553191243172" text-anchor="start" font-family="'Noto Sans TC','PingFang TC','Microsoft JhengHei',sans-serif" font-size="21" font-weight="400" fill="#6B7280">10.4%</text><circle cx="645.9486727038657" cy="635.6659081766013" r="4" fill="#9CA3AF" /><polyline points="645.9486727038657,635.6659081766013 276,659.4644038465236 36,659.4644038465236" fill="none" stroke="#6B7280" stroke-width="2.5" /><text x="36" y="651.4644038465236" text-anchor="start" font-family="'Noto Sans TC','PingFang TC','Microsoft JhengHei',sans-serif" font-size="22" font-weight="400" fill="#6B7280">Cloudflare</text><text x="36" y="680.4644038465236" text-anchor="start" font-family="'Noto Sans TC','PingFang TC','Microsoft JhengHei',sans-serif" font-size="21" font-weight="400" fill="#6B7280">16.7%</text><circle cx="873.2425105011228" cy="270.6278529682416" r="4" fill="#9CA3AF" /><polyline points="873.2425105011228,270.6278529682416 905.4376376847133,262.91227192952863 1164,262.91227192952863" fill="none" stroke="#6B7280" stroke-width="2.5" /><text x="1164" y="254.91227192952863" text-anchor="end" font-family="'Noto Sans TC','PingFang TC','Microsoft JhengHei',sans-serif" font-size="22" font-weight="400" fill="#6B7280">Google</text><text x="1164" y="283.91227192952863" text-anchor="end" font-family="'Noto Sans TC','PingFang TC','Microsoft JhengHei',sans-serif" font-size="21" font-weight="400" fill="#6B7280">39.6%</text><text x="1144" y="680" text-anchor="end" font-family="'Noto Sans TC','PingFang TC','Microsoft JhengHei',sans-serif" font-size="19" font-weight="400" fill="#9CA3AF">Data snapshot: 2026-07-20</text></svg>