<svg xmlns="http://www.w3.org/2000/svg" width="1200" height="700" viewBox="0 0 1200 700"><rect width="100%" height="100%" fill="#EDEDED" /><text x="1144" y="72" text-anchor="end" font-family="'Noto Sans TC','PingFang TC','Microsoft JhengHei',sans-serif" font-size="24" font-weight="400" fill="#9CA3AF">n = 18,969 筆資源請求</text><path d="M 610 360 L 610 66 A 294 294 0 0 1 787.7032678052304 594.2168837025686 Z" fill="#F44336" /><path d="M 610 360 L 787.7032678052304 594.2168837025686 A 294 294 0 0 1 500.74356639830023 632.9451075154808 Z" fill="#FFC107" /><path d="M 610 360 L 500.74356639830023 632.9451075154808 A 294 294 0 0 1 357.01052781915394 509.77425334701854 Z" fill="#3DAA57" /><path d="M 610 360 L 357.01052781915394 509.77425334701854 A 294 294 0 0 1 316.01575013802545 356.9568383066103 Z" fill="#FF7A00" /><path d="M 610 360 L 316.01575013802545 356.9568383066103 A 294 294 0 0 1 351.1431592301964 220.6115643725186 Z" fill="#4CB5BE" /><path d="M 610 360 L 351.1431592301964 220.6115643725186 A 294 294 0 0 1 378.7431407647484 178.46139513412854 Z" fill="#6F9EE8" /><path d="M 610 360 L 378.7431407647484 178.46139513412854 A 294 294 0 0 1 403.01635712314476 151.20878471203235 Z" fill="#E97A75" /><path d="M 610 360 L 403.01635712314476 151.20878471203235 A 294 294 0 0 1 428.2508198537688 128.90859921629973 Z" fill="#F2CC55" /><path d="M 610 360 L 428.2508198537688 128.90859921629973 A 294 294 0 0 1 453.8020233282818 110.92532829759392 Z" fill="#67C587" /><path d="M 610 360 L 453.8020233282818 110.92532829759392 A 294 294 0 0 1 610.0000000000002 66 Z" fill="#C5CCD8" /><circle cx="533.1574510209964" cy="92.83109711942626" r="4" fill="#9CA3AF" /><polyline points="533.1574510209964,92.83109711942626 276,69.76615586354939 36,69.76615586354939" fill="none" stroke="#6B7280" stroke-width="2.5" /><text x="36" y="61.766155863549386" text-anchor="start" font-family="'Noto Sans TC','PingFang TC','Microsoft JhengHei',sans-serif" font-size="22" font-weight="400" fill="#6B7280">其他（&lt;1%）</text><text x="36" y="90.76615586354939" text-anchor="start" font-family="'Noto Sans TC','PingFang TC','Microsoft JhengHei',sans-serif" font-size="21" font-weight="400" fill="#6B7280">8.9%</text><circle cx="449.9962050855489" cy="132.66151752733487" r="4" fill="#9CA3AF" /><polyline points="449.9962050855489,132.66151752733487 276,129.7661558635494 36,129.7661558635494" fill="none" stroke="#6B7280" stroke-width="2.5" /><text x="36" y="121.76615586354939" text-anchor="start" font-family="'Noto Sans TC','PingFang TC','Microsoft JhengHei',sans-serif" font-size="22" font-weight="400" fill="#6B7280">Taiwan Academic (TANet)</text><text x="36" y="150.7661558635494" text-anchor="start" font-family="'Noto Sans TC','PingFang TC','Microsoft JhengHei',sans-serif" font-size="21" font-weight="400" fill="#6B7280">1.7%</text><circle cx="425.9091858563986" cy="151.68636110915347" r="4" fill="#9CA3AF" /><polyline points="425.9091858563986,151.68636110915347 276,189.7661558635494 36,189.7661558635494" fill="none" stroke="#6B7280" stroke-width="2.5" /><text x="36" y="181.7661558635494" text-anchor="start" font-family="'Noto Sans TC','PingFang TC','Microsoft JhengHei',sans-serif" font-size="22" font-weight="400" fill="#6B7280">Microsoft</text><text x="36" y="210.7661558635494" text-anchor="start" font-family="'Noto Sans TC','PingFang TC','Microsoft JhengHei',sans-serif" font-size="21" font-weight="400" fill="#6B7280">1.8%</text><circle cx="402.40441925303253" cy="175.0998246233138" r="4" fill="#9CA3AF" /><polyline points="402.40441925303253,175.0998246233138 276,249.7661558635494 36,249.7661558635494" fill="none" stroke="#6B7280" stroke-width="2.5" /><text x="36" y="241.7661558635494" text-anchor="start" font-family="'Noto Sans TC','PingFang TC','Microsoft JhengHei',sans-serif" font-size="22" font-weight="400" fill="#6B7280">Fastly</text><text x="36" y="270.7661558635494" text-anchor="start" font-family="'Noto Sans TC','PingFang TC','Microsoft JhengHei',sans-serif" font-size="21" font-weight="400" fill="#6B7280">2.0%</text><circle cx="377.4242378236758" cy="207.70911107980916" r="4" fill="#9CA3AF" /><polyline points="377.4242378236758,207.70911107980916 276,309.7661558635494 36,309.7661558635494" fill="none" stroke="#6B7280" stroke-width="2.5" /><text x="36" y="301.7661558635494" text-anchor="start" font-family="'Noto Sans TC','PingFang TC','Microsoft JhengHei',sans-serif" font-size="22" font-weight="400" fill="#6B7280">Akamai</text><text x="36" y="330.7661558635494" text-anchor="start" font-family="'Noto Sans TC','PingFang TC','Microsoft JhengHei',sans-serif" font-size="21" font-weight="400" fill="#6B7280">2.7%</text><circle cx="340.79099416103224" cy="290.6421513079118" r="4" fill="#9CA3AF" /><polyline points="340.79099416103224,290.6421513079118 276,369.7661558635494 36,369.7661558635494" fill="none" stroke="#6B7280" stroke-width="2.5" /><text x="36" y="361.7661558635494" text-anchor="start" font-family="'Noto Sans TC','PingFang TC','Microsoft JhengHei',sans-serif" font-size="22" font-weight="400" fill="#6B7280">Facebook</text><text x="36" y="390.7661558635494" text-anchor="start" font-family="'Noto Sans TC','PingFang TC','Microsoft JhengHei',sans-serif" font-size="21" font-weight="400" fill="#6B7280">7.7%</text><circle cx="341.493485336432" cy="432.02951883237284" r="4" fill="#9CA3AF" /><polyline points="341.493485336432,432.02951883237284 276,438.2478945589086 36,438.2478945589086" fill="none" stroke="#6B7280" stroke-width="2.5" /><text x="36" y="430.2478945589086" text-anchor="start" font-family="'Noto Sans TC','PingFang TC','Microsoft JhengHei',sans-serif" font-size="22" font-weight="400" fill="#6B7280">Data Communication (CHT)</text><text x="36" y="459.2478945589086" text-anchor="start" font-family="'Noto Sans TC','PingFang TC','Microsoft JhengHei',sans-serif" font-size="21" font-weight="400" fill="#6B7280">8.7%</text><circle cx="429.10446142324406" cy="571.0943014934923" r="4" fill="#9CA3AF" /><polyline points="429.10446142324406,571.0943014934923 276,589.3182699677506 36,589.3182699677506" fill="none" stroke="#6B7280" stroke-width="2.5" /><text x="36" y="581.3182699677506" text-anchor="start" font-family="'Noto Sans TC','PingFang TC','Microsoft JhengHei',sans-serif" font-size="22" font-weight="400" fill="#6B7280">Amazon</text><text x="36" y="610.3182699677506" text-anchor="start" font-family="'Noto Sans TC','PingFang TC','Microsoft JhengHei',sans-serif" font-size="21" font-weight="400" fill="#6B7280">10.4%</text><circle cx="647.1819240975437" cy="635.5022767971337" r="4" fill="#9CA3AF" /><polyline points="647.1819240975437,635.5022767971337 276,659.2866460170302 36,659.2866460170302" fill="none" stroke="#6B7280" stroke-width="2.5" /><text x="36" y="651.2866460170302" text-anchor="start" font-family="'Noto Sans TC','PingFang TC','Microsoft JhengHei',sans-serif" font-size="22" font-weight="400" fill="#6B7280">Cloudflare</text><text x="36" y="680.2866460170302" text-anchor="start" font-family="'Noto Sans TC','PingFang TC','Microsoft JhengHei',sans-serif" font-size="21" font-weight="400" fill="#6B7280">16.4%</text><circle cx="873.4888683447832" cy="271.3568036542819" r="4" fill="#9CA3AF" /><polyline points="873.4888683447832,271.3568036542819 905.714125624361,263.7041536100473 1164,263.7041536100473" fill="none" stroke="#6B7280" stroke-width="2.5" /><text x="1164" y="255.70415361004729" text-anchor="end" font-family="'Noto Sans TC','PingFang TC','Microsoft JhengHei',sans-serif" font-size="22" font-weight="400" fill="#6B7280">Google</text><text x="1164" y="284.7041536100473" text-anchor="end" font-family="'Noto Sans TC','PingFang TC','Microsoft JhengHei',sans-serif" font-size="21" font-weight="400" fill="#6B7280">39.7%</text><text x="1144" y="680" text-anchor="end" font-family="'Noto Sans TC','PingFang TC','Microsoft JhengHei',sans-serif" font-size="19" font-weight="400" fill="#9CA3AF">資料日期: 2026-07-21</text></svg>