<svg xmlns="http://www.w3.org/2000/svg" width="1200" height="700" viewBox="0 0 1200 700"><rect width="100%" height="100%" fill="#EDEDED" /><text x="1144" y="72" text-anchor="end" font-family="'Noto Sans TC','PingFang TC','Microsoft JhengHei',sans-serif" font-size="24" font-weight="400" fill="#9CA3AF">n = 15,774 requests</text><path d="M 610 360 L 610 66 A 294 294 0 0 1 769.0469049658219 607.265205843428 Z" fill="#F44336" /><path d="M 610 360 L 769.0469049658219 607.265205843428 A 294 294 0 0 1 495.9646281598735 630.9832724898054 Z" fill="#FFC107" /><path d="M 610 360 L 495.9646281598735 630.9832724898054 A 294 294 0 0 1 355.50571974583943 507.20278977627015 Z" fill="#3DAA57" /><path d="M 610 360 L 355.50571974583943 507.20278977627015 A 294 294 0 0 1 316.1587311681297 369.6596444694678 Z" fill="#FF7A00" /><path d="M 610 360 L 316.1587311681297 369.6596444694678 A 294 294 0 0 1 335.96405094877815 253.509161766863 Z" fill="#4CB5BE" /><path d="M 610 360 L 335.96405094877815 253.509161766863 A 294 294 0 0 1 368.8953393265193 191.76046064754658 Z" fill="#6F9EE8" /><path d="M 610 360 L 368.8953393265193 191.76046064754658 A 294 294 0 0 1 402.08990545400445 152.13130926982973 Z" fill="#E97A75" /><path d="M 610 360 L 402.08990545400445 152.13130926982973 A 294 294 0 0 1 426.9753506616381 129.9174545199709 Z" fill="#F2CC55" /><path d="M 610 360 L 426.9753506616381 129.9174545199709 A 294 294 0 0 1 454.1176743844747 110.7276578505041 Z" fill="#67C587" /><path d="M 610 360 L 454.1176743844747 110.7276578505041 A 294 294 0 0 1 610.0000000000002 66 Z" fill="#C5CCD8" /><circle cx="533.326690143056" cy="92.78247895098445" r="4" fill="#9CA3AF" /><polyline points="533.326690143056,92.78247895098445 276,68.84600125303581 36,68.84600125303581" fill="none" stroke="#6B7280" stroke-width="2.5" /><text x="36" y="60.84600125303581" text-anchor="start" font-family="'Noto Sans TC','PingFang TC','Microsoft JhengHei',sans-serif" font-size="22" font-weight="400" fill="#6B7280">Others (&lt;1%)</text><text x="36" y="89.84600125303581" text-anchor="start" font-family="'Noto Sans TC','PingFang TC','Microsoft JhengHei',sans-serif" font-size="21" font-weight="400" fill="#6B7280">8.9%</text><circle cx="449.5118158468996" cy="133.00320983053413" r="4" fill="#9CA3AF" /><polyline points="449.5118158468996,133.00320983053413 276,129.7133404431558 36,129.7133404431558" fill="none" stroke="#6B7280" stroke-width="2.5" /><text x="36" y="121.7133404431558" text-anchor="start" font-family="'Noto Sans TC','PingFang TC','Microsoft JhengHei',sans-serif" font-size="22" font-weight="400" fill="#6B7280">Microsoft</text><text x="36" y="150.7133404431558" text-anchor="start" font-family="'Noto Sans TC','PingFang TC','Microsoft JhengHei',sans-serif" font-size="21" font-weight="400" fill="#6B7280">1.8%</text><circle cx="424.87216083459657" cy="152.60741776536815" r="4" fill="#9CA3AF" /><polyline points="424.87216083459657,152.60741776536815 276,189.7133404431558 36,189.7133404431558" fill="none" stroke="#6B7280" stroke-width="2.5" /><text x="36" y="181.7133404431558" text-anchor="start" font-family="'Noto Sans TC','PingFang TC','Microsoft JhengHei',sans-serif" font-size="22" font-weight="400" fill="#6B7280">Taiwan Academic (TANet)</text><text x="36" y="210.7133404431558" text-anchor="start" font-family="'Noto Sans TC','PingFang TC','Microsoft JhengHei',sans-serif" font-size="21" font-weight="400" fill="#6B7280">1.8%</text><circle cx="396.88550352875615" cy="181.4889040036777" r="4" fill="#9CA3AF" /><polyline points="396.88550352875615,181.4889040036777 276,249.7133404431558 36,249.7133404431558" fill="none" stroke="#6B7280" stroke-width="2.5" /><text x="36" y="241.7133404431558" text-anchor="start" font-family="'Noto Sans TC','PingFang TC','Microsoft JhengHei',sans-serif" font-size="22" font-weight="400" fill="#6B7280">Fastly</text><text x="36" y="270.7133404431558" text-anchor="start" font-family="'Noto Sans TC','PingFang TC','Microsoft JhengHei',sans-serif" font-size="21" font-weight="400" fill="#6B7280">2.8%</text><circle cx="364.7036519320488" cy="229.18065271326824" r="4" fill="#9CA3AF" /><polyline points="364.7036519320488,229.18065271326824 276,309.7133404431558 36,309.7133404431558" fill="none" stroke="#6B7280" stroke-width="2.5" /><text x="36" y="301.7133404431558" text-anchor="start" font-family="'Noto Sans TC','PingFang TC','Microsoft JhengHei',sans-serif" font-size="22" font-weight="400" fill="#6B7280">Akamai</text><text x="36" y="330.7133404431558" text-anchor="start" font-family="'Noto Sans TC','PingFang TC','Microsoft JhengHei',sans-serif" font-size="21" font-weight="400" fill="#6B7280">3.8%</text><circle cx="335.9553964553241" cy="313.27147265276386" r="4" fill="#9CA3AF" /><polyline points="335.9553964553241,313.27147265276386 276,369.7133404431558 36,369.7133404431558" fill="none" stroke="#6B7280" stroke-width="2.5" /><text x="36" y="361.7133404431558" text-anchor="start" font-family="'Noto Sans TC','PingFang TC','Microsoft JhengHei',sans-serif" font-size="22" font-weight="400" fill="#6B7280">Facebook</text><text x="36" y="390.7133404431558" text-anchor="start" font-family="'Noto Sans TC','PingFang TC','Microsoft JhengHei',sans-serif" font-size="21" font-weight="400" fill="#6B7280">6.4%</text><circle cx="342.72148189459926" cy="436.46040648192354" r="4" fill="#9CA3AF" /><polyline points="342.72148189459926,436.46040648192354 276,442.1939656931207 36,442.1939656931207" fill="none" stroke="#6B7280" stroke-width="2.5" /><text x="36" y="434.1939656931207" text-anchor="start" font-family="'Noto Sans TC','PingFang TC','Microsoft JhengHei',sans-serif" font-size="22" font-weight="400" fill="#6B7280">Data Communication (CHT)</text><text x="36" y="463.1939656931207" text-anchor="start" font-family="'Noto Sans TC','PingFang TC','Microsoft JhengHei',sans-serif" font-size="21" font-weight="400" fill="#6B7280">7.8%</text><circle cx="426.19766744024787" cy="568.5682203634923" r="4" fill="#9CA3AF" /><polyline points="426.19766744024787,568.5682203634923 276,585.7067707011558 36,585.7067707011558" fill="none" stroke="#6B7280" stroke-width="2.5" /><text x="36" y="577.7067707011558" text-anchor="start" font-family="'Noto Sans TC','PingFang TC','Microsoft JhengHei',sans-serif" font-size="22" font-weight="400" fill="#6B7280">Amazon</text><text x="36" y="606.7067707011558" text-anchor="start" font-family="'Noto Sans TC','PingFang TC','Microsoft JhengHei',sans-serif" font-size="21" font-weight="400" fill="#6B7280">10.3%</text><circle cx="634.0546292826234" cy="636.957351969713" r="4" fill="#9CA3AF" /><polyline points="634.0546292826234,636.957351969713 276,660 36,660" fill="none" stroke="#6B7280" stroke-width="2.5" /><text x="36" y="652" text-anchor="start" font-family="'Noto Sans TC','PingFang TC','Microsoft JhengHei',sans-serif" font-size="22" font-weight="400" fill="#6B7280">Cloudflare</text><text x="36" y="681" text-anchor="start" font-family="'Noto Sans TC','PingFang TC','Microsoft JhengHei',sans-serif" font-size="21" font-weight="400" fill="#6B7280">15.4%</text><circle cx="876.723442622173" cy="281.62522627926523" r="4" fill="#9CA3AF" /><polyline points="876.723442622173,281.62522627926523 909.3442953169712,274.85905876380616 1164,274.85905876380616" fill="none" stroke="#6B7280" stroke-width="2.5" /><text x="1164" y="266.85905876380616" text-anchor="end" font-family="'Noto Sans TC','PingFang TC','Microsoft JhengHei',sans-serif" font-size="22" font-weight="400" fill="#6B7280">Google</text><text x="1164" y="295.85905876380616" text-anchor="end" font-family="'Noto Sans TC','PingFang TC','Microsoft JhengHei',sans-serif" font-size="21" font-weight="400" fill="#6B7280">40.9%</text><text x="1144" y="680" text-anchor="end" font-family="'Noto Sans TC','PingFang TC','Microsoft JhengHei',sans-serif" font-size="19" font-weight="400" fill="#9CA3AF">Data snapshot: 2026-03-21</text></svg>