<svg height="700" viewBox="0 0 1200 700" width="1200" xmlns="http://www.w3.org/2000/svg"><rect fill="#ededed" height="100%" width="100%"/><text fill="#9ca3af" font-family="'Noto Sans TC','PingFang TC','Microsoft JhengHei',sans-serif" font-size="24" font-weight="400" text-anchor="end" x="1144" y="72">n = 15,774 requests</text><path d="m610 360v-294a294 294 0 0 1 159.04690497 541.26520584z" fill="#f44336"/><path d="m610 360 159.04690497 247.26520584a294 294 0 0 1 -273.08227681 23.71806665z" fill="#ffc107"/><path d="m610 360-114.03537184 270.98327249a294 294 0 0 1 -140.45890841-123.78048271z" fill="#3daa57"/><path d="m610 360-254.49428025 147.20278978a294 294 0 0 1 -39.34698858-137.54314531z" fill="#ff7a00"/><path d="m610 360-293.84126883 9.65964447a294 294 0 0 1 19.80531978-116.1504827z" fill="#4cb5be"/><path d="m610 360-274.03594905-106.49083823a294 294 0 0 1 32.93128838-61.74870112z" fill="#6f9ee8"/><path d="m610 360-241.10466067-168.23953935a294 294 0 0 1 33.19456612-39.62915138z" fill="#e97a75"/><path d="m610 360-207.91009455-207.86869073a294 294 0 0 1 24.88544521-22.21385475z" fill="#f2cc55"/><path d="m610 360-183.02464934-230.08254548a294 294 0 0 1 27.14232372-19.18979667z" fill="#67c587"/><path d="m610 360-155.88232562-249.27234215a294 294 0 0 1 155.88232562-44.72765785z" fill="#c5ccd8"/><circle cx="533.32669" cy="92.782479" fill="#9ca3af" r="4"/><path d="m533.32669014 92.78247895-257.32669014-23.9364777h-240" fill="none" stroke="#6b7280" stroke-width="2.5"/><text fill="#6b7280" font-family="'Noto Sans TC','PingFang TC','Microsoft JhengHei',sans-serif" font-size="22" font-weight="400" x="36" y="60.846001">Others (&lt;1%)</text><text fill="#6b7280" font-family="'Noto Sans TC','PingFang TC','Microsoft JhengHei',sans-serif" font-size="21" font-weight="400" x="36" y="89.846001">8.9%</text><circle cx="449.511816" cy="133.00321" fill="#9ca3af" r="4"/><path d="m449.51181585 133.00320983-173.51181585-3.28986939h-240" fill="none" stroke="#6b7280" stroke-width="2.5"/><text fill="#6b7280" font-family="'Noto Sans TC','PingFang TC','Microsoft JhengHei',sans-serif" font-size="22" font-weight="400" x="36" y="121.71334">Microsoft</text><text fill="#6b7280" font-family="'Noto Sans TC','PingFang TC','Microsoft JhengHei',sans-serif" font-size="21" font-weight="400" x="36" y="150.71334">1.8%</text><circle cx="424.872161" cy="152.607418" fill="#9ca3af" r="4"/><path d="m424.87216083 152.60741777-148.87216083 37.10592267h-240" fill="none" stroke="#6b7280" stroke-width="2.5"/><text fill="#6b7280" font-family="'Noto Sans TC','PingFang TC','Microsoft JhengHei',sans-serif" font-size="22" font-weight="400" x="36" y="181.71334">Taiwan Academic (TANet)</text><text fill="#6b7280" font-family="'Noto Sans TC','PingFang TC','Microsoft JhengHei',sans-serif" font-size="21" font-weight="400" x="36" y="210.71334">1.8%</text><circle cx="396.885504" cy="181.488904" fill="#9ca3af" r="4"/><path d="m396.88550353 181.488904-120.88550353 68.22443644h-240" fill="none" stroke="#6b7280" stroke-width="2.5"/><text fill="#6b7280" font-family="'Noto Sans TC','PingFang TC','Microsoft JhengHei',sans-serif" font-size="22" font-weight="400" x="36" y="241.71334">Fastly</text><text fill="#6b7280" font-family="'Noto Sans TC','PingFang TC','Microsoft JhengHei',sans-serif" font-size="21" font-weight="400" x="36" y="270.71334">2.8%</text><circle cx="364.703652" cy="229.180653" fill="#9ca3af" r="4"/><path d="m364.70365193 229.18065271-88.70365193 80.53268773h-240" fill="none" stroke="#6b7280" stroke-width="2.5"/><text fill="#6b7280" font-family="'Noto Sans TC','PingFang TC','Microsoft JhengHei',sans-serif" font-size="22" font-weight="400" x="36" y="301.71334">Akamai</text><text fill="#6b7280" font-family="'Noto Sans TC','PingFang TC','Microsoft JhengHei',sans-serif" font-size="21" font-weight="400" x="36" y="330.71334">3.8%</text><circle cx="335.955396" cy="313.271473" fill="#9ca3af" r="4"/><path d="m335.95539646 313.27147265-59.95539646 56.44186779h-240" fill="none" stroke="#6b7280" stroke-width="2.5"/><text fill="#6b7280" font-family="'Noto Sans TC','PingFang TC','Microsoft JhengHei',sans-serif" font-size="22" font-weight="400" x="36" y="361.71334">Facebook</text><text fill="#6b7280" font-family="'Noto Sans TC','PingFang TC','Microsoft JhengHei',sans-serif" font-size="21" font-weight="400" x="36" y="390.71334">6.4%</text><circle cx="342.721482" cy="436.460406" fill="#9ca3af" r="4"/><path d="m342.72148189 436.46040648-66.72148189 5.73355921h-240" fill="none" stroke="#6b7280" stroke-width="2.5"/><text fill="#6b7280" font-family="'Noto Sans TC','PingFang TC','Microsoft JhengHei',sans-serif" font-size="22" font-weight="400" x="36" y="434.193966">Data Communication (CHT)</text><text fill="#6b7280" font-family="'Noto Sans TC','PingFang TC','Microsoft JhengHei',sans-serif" font-size="21" font-weight="400" x="36" y="463.193966">7.8%</text><circle cx="426.197667" cy="568.56822" fill="#9ca3af" r="4"/><path d="m426.19766744 568.56822036-150.19766744 17.13855034h-240" fill="none" stroke="#6b7280" stroke-width="2.5"/><text fill="#6b7280" font-family="'Noto Sans TC','PingFang TC','Microsoft JhengHei',sans-serif" font-size="22" font-weight="400" x="36" y="577.706771">Amazon</text><text fill="#6b7280" font-family="'Noto Sans TC','PingFang TC','Microsoft JhengHei',sans-serif" font-size="21" font-weight="400" x="36" y="606.706771">10.3%</text><circle cx="634.054629" cy="636.957352" fill="#9ca3af" r="4"/><path d="m634.05462928 636.95735197-358.05462928 23.04264803h-240" fill="none" stroke="#6b7280" stroke-width="2.5"/><text fill="#6b7280" font-family="'Noto Sans TC','PingFang TC','Microsoft JhengHei',sans-serif" font-size="22" font-weight="400" x="36" y="652">Cloudflare</text><text fill="#6b7280" font-family="'Noto Sans TC','PingFang TC','Microsoft JhengHei',sans-serif" font-size="21" font-weight="400" x="36" y="681">15.4%</text><circle cx="876.723443" cy="281.625226" fill="#9ca3af" r="4"/><path d="m876.72344262 281.62522628 32.6208527-6.76616752h254.65570468" fill="none" stroke="#6b7280" stroke-width="2.5"/><g font-family="'Noto Sans TC','PingFang TC','Microsoft JhengHei',sans-serif" font-weight="400" text-anchor="end"><text fill="#6b7280" font-size="22" x="1164" y="266.859059">Google</text><text fill="#6b7280" font-size="21" x="1164" y="295.859059">40.9%</text><text fill="#9ca3af" font-size="19" x="1144" y="680">Data snapshot: 2026-05-06</text></g></svg>