<svg xmlns="http://www.w3.org/2000/svg" width="1200" height="700" viewBox="0 0 1200 700"><rect width="100%" height="100%" fill="#EDEDED" /><text x="1144" y="72" text-anchor="end" font-family="'Noto Sans TC','PingFang TC','Microsoft JhengHei',sans-serif" font-size="24" font-weight="400" fill="#9CA3AF">n = 16,813 requests</text><path d="M 610 360 L 610 66 A 294 294 0 0 1 786.0106726059922 595.4914926887726 Z" fill="#F44336" /><path d="M 610 360 L 786.0106726059922 595.4914926887726 A 294 294 0 0 1 514.6833067547706 638.1199884740305 Z" fill="#FFC107" /><path d="M 610 360 L 514.6833067547706 638.1199884740305 A 294 294 0 0 1 365.70255311861933 523.5688156319505 Z" fill="#3DAA57" /><path d="M 610 360 L 365.70255311861933 523.5688156319505 A 294 294 0 0 1 316.4182499328402 375.6766076529233 Z" fill="#FF7A00" /><path d="M 610 360 L 316.4182499328402 375.6766076529233 A 294 294 0 0 1 342.8844288283992 237.17788620256732 Z" fill="#4CB5BE" /><path d="M 610 360 L 342.8844288283992 237.17788620256732 A 294 294 0 0 1 370.66926841186483 189.2463736329796 Z" fill="#6F9EE8" /><path d="M 610 360 L 370.66926841186483 189.2463736329796 A 294 294 0 0 1 403.0157154315099 151.20942085029245 Z" fill="#E97A75" /><path d="M 610 360 L 403.0157154315099 151.20942085029245 A 294 294 0 0 1 429.22986387393246 128.14194453294704 Z" fill="#F2CC55" /><path d="M 610 360 L 429.22986387393246 128.14194453294704 A 294 294 0 0 1 455.4625465579055 109.89167250242852 Z" fill="#67C587" /><path d="M 610 360 L 455.4625465579055 109.89167250242852 A 294 294 0 0 1 610 66 Z" fill="#C5CCD8" /><circle cx="534.0466037796134" cy="92.57696134665406" r="4" fill="#9CA3AF" /><polyline points="534.0466037796134,92.57696134665406 276,69.4900803118328 36,69.4900803118328" fill="none" stroke="#6B7280" stroke-width="2.5" /><text x="36" y="61.4900803118328" text-anchor="start" font-family="'Noto Sans TC','PingFang TC','Microsoft JhengHei',sans-serif" font-size="22" font-weight="400" fill="#6B7280">Others (&lt;1%)</text><text x="36" y="90.4900803118328" text-anchor="start" font-family="'Noto Sans TC','PingFang TC','Microsoft JhengHei',sans-serif" font-size="21" font-weight="400" fill="#6B7280">8.8%</text><circle cx="451.23557615981497" cy="131.7942644833525" r="4" fill="#9CA3AF" /><polyline points="451.23557615981497,131.7942644833525 276,129.4900803118328 36,129.4900803118328" fill="none" stroke="#6B7280" stroke-width="2.5" /><text x="36" y="121.4900803118328" text-anchor="start" font-family="'Noto Sans TC','PingFang TC','Microsoft JhengHei',sans-serif" font-size="22" font-weight="400" fill="#6B7280">Taiwan Academic (TANet)</text><text x="36" y="150.4900803118328" text-anchor="start" font-family="'Noto Sans TC','PingFang TC','Microsoft JhengHei',sans-serif" font-size="21" font-weight="400" fill="#6B7280">1.7%</text><circle cx="426.34981683395375" cy="151.29779535645133" r="4" fill="#9CA3AF" /><polyline points="426.34981683395375,151.29779535645133 276,189.4900803118328 36,189.4900803118328" fill="none" stroke="#6B7280" stroke-width="2.5" /><text x="36" y="181.4900803118328" text-anchor="start" font-family="'Noto Sans TC','PingFang TC','Microsoft JhengHei',sans-serif" font-size="22" font-weight="400" fill="#6B7280">Microsoft</text><text x="36" y="210.4900803118328" text-anchor="start" font-family="'Noto Sans TC','PingFang TC','Microsoft JhengHei',sans-serif" font-size="21" font-weight="400" fill="#6B7280">1.9%</text><circle cx="398.222189510023" cy="179.90513892930935" r="4" fill="#9CA3AF" /><polyline points="398.222189510023,179.90513892930935 276,249.4900803118328 36,249.4900803118328" fill="none" stroke="#6B7280" stroke-width="2.5" /><text x="36" y="241.4900803118328" text-anchor="start" font-family="'Noto Sans TC','PingFang TC','Microsoft JhengHei',sans-serif" font-size="22" font-weight="400" fill="#6B7280">Fastly</text><text x="36" y="270.4900803118328" text-anchor="start" font-family="'Noto Sans TC','PingFang TC','Microsoft JhengHei',sans-serif" font-size="21" font-weight="400" fill="#6B7280">2.7%</text><circle cx="369.48771693343724" cy="220.58033964282657" r="4" fill="#9CA3AF" /><polyline points="369.48771693343724,220.58033964282657 276,309.4900803118328 36,309.4900803118328" fill="none" stroke="#6B7280" stroke-width="2.5" /><text x="36" y="301.4900803118328" text-anchor="start" font-family="'Noto Sans TC','PingFang TC','Microsoft JhengHei',sans-serif" font-size="22" font-weight="400" fill="#6B7280">Akamai</text><text x="36" y="330.4900803118328" text-anchor="start" font-family="'Noto Sans TC','PingFang TC','Microsoft JhengHei',sans-serif" font-size="21" font-weight="400" fill="#6B7280">3.0%</text><circle cx="336.9409002788259" cy="307.82023323680056" r="4" fill="#9CA3AF" /><polyline points="336.9409002788259,307.82023323680056 276,369.4900803118328 36,369.4900803118328" fill="none" stroke="#6B7280" stroke-width="2.5" /><text x="36" y="361.4900803118328" text-anchor="start" font-family="'Noto Sans TC','PingFang TC','Microsoft JhengHei',sans-serif" font-size="22" font-weight="400" fill="#6B7280">Facebook</text><text x="36" y="390.4900803118328" text-anchor="start" font-family="'Noto Sans TC','PingFang TC','Microsoft JhengHei',sans-serif" font-size="21" font-weight="400" fill="#6B7280">7.7%</text><circle cx="346.2590357651758" cy="447.8902940288926" r="4" fill="#9CA3AF" /><polyline points="346.2590357651758,447.8902940288926 276,455.47794531196246 36,455.47794531196246" fill="none" stroke="#6B7280" stroke-width="2.5" /><text x="36" y="447.47794531196246" text-anchor="start" font-family="'Noto Sans TC','PingFang TC','Microsoft JhengHei',sans-serif" font-size="22" font-weight="400" fill="#6B7280">Data Communication (CHT)</text><text x="36" y="476.47794531196246" text-anchor="start" font-family="'Noto Sans TC','PingFang TC','Microsoft JhengHei',sans-serif" font-size="21" font-weight="400" fill="#6B7280">8.5%</text><circle cx="440.54632913984415" cy="580.3847849376584" r="4" fill="#9CA3AF" /><polyline points="440.54632913984415,580.3847849376584 276,599.410809536593 36,599.410809536593" fill="none" stroke="#6B7280" stroke-width="2.5" /><text x="36" y="591.410809536593" text-anchor="start" font-family="'Noto Sans TC','PingFang TC','Microsoft JhengHei',sans-serif" font-size="22" font-weight="400" fill="#6B7280">Amazon</text><text x="36" y="620.410809536593" text-anchor="start" font-family="'Noto Sans TC','PingFang TC','Microsoft JhengHei',sans-serif" font-size="21" font-weight="400" fill="#6B7280">10.4%</text><circle cx="653.1475619321734" cy="634.631185227223" r="4" fill="#9CA3AF" /><polyline points="653.1475619321734,634.631185227223 276,659.410809536593 36,659.410809536593" fill="none" stroke="#6B7280" stroke-width="2.5" /><text x="36" y="651.410809536593" text-anchor="start" font-family="'Noto Sans TC','PingFang TC','Microsoft JhengHei',sans-serif" font-size="22" font-weight="400" fill="#6B7280">Cloudflare</text><text x="36" y="680.410809536593" text-anchor="start" font-family="'Noto Sans TC','PingFang TC','Microsoft JhengHei',sans-serif" font-size="21" font-weight="400" fill="#6B7280">15.5%</text><circle cx="873.8065815149628" cy="272.30685574465195" r="4" fill="#9CA3AF" /><polyline points="873.8065815149628,272.30685574465195 906.0706958009655,264.73622458591683 1164,264.73622458591683" fill="none" stroke="#6B7280" stroke-width="2.5" /><text x="1164" y="256.73622458591683" text-anchor="end" font-family="'Noto Sans TC','PingFang TC','Microsoft JhengHei',sans-serif" font-size="22" font-weight="400" fill="#6B7280">Google</text><text x="1164" y="285.73622458591683" text-anchor="end" font-family="'Noto Sans TC','PingFang TC','Microsoft JhengHei',sans-serif" font-size="21" font-weight="400" fill="#6B7280">39.8%</text><text x="1144" y="680" text-anchor="end" font-family="'Noto Sans TC','PingFang TC','Microsoft JhengHei',sans-serif" font-size="19" font-weight="400" fill="#9CA3AF">Data snapshot: 2026-06-26</text></svg>