<svg xmlns="http://www.w3.org/2000/svg" width="1200" height="700" viewBox="0 0 1200 700"><rect width="100%" height="100%" fill="#EDEDED" /><text x="1144" y="72" text-anchor="end" font-family="'Noto Sans TC','PingFang TC','Microsoft JhengHei',sans-serif" font-size="24" font-weight="400" fill="#9CA3AF">n = 15,781 requests</text><path d="M 610 360 L 610 66 A 294 294 0 0 1 768.9349718867733 607.3371680749793 Z" fill="#F44336" /><path d="M 610 360 L 768.9349718867733 607.3371680749793 A 294 294 0 0 1 495.95856124964024 630.98071932842 Z" fill="#FFC107" /><path d="M 610 360 L 495.95856124964024 630.98071932842 A 294 294 0 0 1 355.42755883294325 507.0675769782225 Z" fill="#3DAA57" /><path d="M 610 360 L 355.42755883294325 507.0675769782225 A 294 294 0 0 1 316.15572029314507 369.5676163990627 Z" fill="#FF7A00" /><path d="M 610 360 L 316.15572029314507 369.5676163990627 A 294 294 0 0 1 335.97834506809556 253.4723856064528 Z" fill="#4CB5BE" /><path d="M 610 360 L 335.97834506809556 253.4723856064528 A 294 294 0 0 1 368.90011249454227 191.75362041085214 Z" fill="#6F9EE8" /><path d="M 610 360 L 368.90011249454227 191.75362041085214 A 294 294 0 0 1 402.07956956066846 152.14164773595672 Z" fill="#E97A75" /><path d="M 610 360 L 402.07956956066846 152.14164773595672 A 294 294 0 0 1 426.9523249485515 129.9357727540865 Z" fill="#F2CC55" /><path d="M 610 360 L 426.9523249485515 129.9357727540865 A 294 294 0 0 1 454.08022082632067 110.75108332746743 Z" fill="#67C587" /><path d="M 610 360 L 454.08022082632067 110.75108332746743 A 294 294 0 0 1 610 66 Z" fill="#C5CCD8" /><circle cx="533.3066144915463" cy="92.7882401179699" r="4" fill="#9CA3AF" /><polyline points="533.3066144915463,92.7882401179699 276,68.8460619996855 36,68.8460619996855" fill="none" stroke="#6B7280" stroke-width="2.5" /><text x="36" y="60.8460619996855" text-anchor="start" font-family="'Noto Sans TC','PingFang TC','Microsoft JhengHei',sans-serif" font-size="22" font-weight="400" fill="#6B7280">Others (&lt;1%)</text><text x="36" y="89.8460619996855" text-anchor="start" font-family="'Noto Sans TC','PingFang TC','Microsoft JhengHei',sans-serif" font-size="21" font-weight="400" fill="#6B7280">8.9%</text><circle cx="449.4834040881483" cy="133.02329979297147" r="4" fill="#9CA3AF" /><polyline points="449.4834040881483,133.02329979297147 276,129.71959897707518 36,129.71959897707518" fill="none" stroke="#6B7280" stroke-width="2.5" /><text x="36" y="121.71959897707518" text-anchor="start" font-family="'Noto Sans TC','PingFang TC','Microsoft JhengHei',sans-serif" font-size="22" font-weight="400" fill="#6B7280">Microsoft</text><text x="36" y="150.71959897707518" text-anchor="start" font-family="'Noto Sans TC','PingFang TC','Microsoft JhengHei',sans-serif" font-size="21" font-weight="400" fill="#6B7280">1.8%</text><circle cx="424.85662720520486" cy="152.62128481889107" r="4" fill="#9CA3AF" /><polyline points="424.85662720520486,152.62128481889107 276,189.71959897707518 36,189.71959897707518" fill="none" stroke="#6B7280" stroke-width="2.5" /><text x="36" y="181.71959897707518" text-anchor="start" font-family="'Noto Sans TC','PingFang TC','Microsoft JhengHei',sans-serif" font-size="22" font-weight="400" fill="#6B7280">Taiwan Academic (TANet)</text><text x="36" y="210.71959897707518" text-anchor="start" font-family="'Noto Sans TC','PingFang TC','Microsoft JhengHei',sans-serif" font-size="21" font-weight="400" fill="#6B7280">1.8%</text><circle cx="396.88359760146875" cy="181.49117940923114" r="4" fill="#9CA3AF" /><polyline points="396.88359760146875,181.49117940923114 276,249.71959897707518 36,249.71959897707518" fill="none" stroke="#6B7280" stroke-width="2.5" /><text x="36" y="241.71959897707518" text-anchor="start" font-family="'Noto Sans TC','PingFang TC','Microsoft JhengHei',sans-serif" font-size="22" font-weight="400" fill="#6B7280">Fastly</text><text x="36" y="270.7195989770752" text-anchor="start" font-family="'Noto Sans TC','PingFang TC','Microsoft JhengHei',sans-serif" font-size="21" font-weight="400" fill="#6B7280">2.8%</text><circle cx="364.71428679480323" cy="229.1607134786422" r="4" fill="#9CA3AF" /><polyline points="364.71428679480323,229.1607134786422 276,309.7195989770752 36,309.7195989770752" fill="none" stroke="#6B7280" stroke-width="2.5" /><text x="36" y="301.7195989770752" text-anchor="start" font-family="'Noto Sans TC','PingFang TC','Microsoft JhengHei',sans-serif" font-size="22" font-weight="400" fill="#6B7280">Akamai</text><text x="36" y="330.7195989770752" text-anchor="start" font-family="'Noto Sans TC','PingFang TC','Microsoft JhengHei',sans-serif" font-size="21" font-weight="400" fill="#6B7280">3.8%</text><circle cx="335.96585633363225" cy="313.2101709231534" r="4" fill="#9CA3AF" /><polyline points="335.96585633363225,313.2101709231534 276,369.7195989770752 36,369.7195989770752" fill="none" stroke="#6B7280" stroke-width="2.5" /><text x="36" y="361.7195989770752" text-anchor="start" font-family="'Noto Sans TC','PingFang TC','Microsoft JhengHei',sans-serif" font-size="22" font-weight="400" fill="#6B7280">Facebook</text><text x="36" y="390.7195989770752" text-anchor="start" font-family="'Noto Sans TC','PingFang TC','Microsoft JhengHei',sans-serif" font-size="21" font-weight="400" fill="#6B7280">6.4%</text><circle cx="342.68922388562066" cy="436.34755381234004" r="4" fill="#9CA3AF" /><polyline points="342.68922388562066,436.34755381234004 276,442.0651725597567 36,442.0651725597567" fill="none" stroke="#6B7280" stroke-width="2.5" /><text x="36" y="434.0651725597567" text-anchor="start" font-family="'Noto Sans TC','PingFang TC','Microsoft JhengHei',sans-serif" font-size="22" font-weight="400" fill="#6B7280">Data Communication (CHT)</text><text x="36" y="463.0651725597567" text-anchor="start" font-family="'Noto Sans TC','PingFang TC','Microsoft JhengHei',sans-serif" font-size="21" font-weight="400" fill="#6B7280">7.8%</text><circle cx="426.139942072033" cy="568.5173352475151" r="4" fill="#9CA3AF" /><polyline points="426.139942072033,568.5173352475151 276,585.6452948382563 36,585.6452948382563" fill="none" stroke="#6B7280" stroke-width="2.5" /><text x="36" y="577.6452948382563" text-anchor="start" font-family="'Noto Sans TC','PingFang TC','Microsoft JhengHei',sans-serif" font-size="22" font-weight="400" fill="#6B7280">Amazon</text><text x="36" y="606.6452948382563" text-anchor="start" font-family="'Noto Sans TC','PingFang TC','Microsoft JhengHei',sans-serif" font-size="21" font-weight="400" fill="#6B7280">10.3%</text><circle cx="633.9888502576094" cy="636.9630572175972" r="4" fill="#9CA3AF" /><polyline points="633.9888502576094,636.9630572175972 276,660 36,660" fill="none" stroke="#6B7280" stroke-width="2.5" /><text x="36" y="652" text-anchor="start" font-family="'Noto Sans TC','PingFang TC','Microsoft JhengHei',sans-serif" font-size="22" font-weight="400" fill="#6B7280">Cloudflare</text><text x="36" y="681" text-anchor="start" font-family="'Noto Sans TC','PingFang TC','Microsoft JhengHei',sans-serif" font-size="21" font-weight="400" fill="#6B7280">15.4%</text><circle cx="876.7411727256447" cy="281.68559025985206" r="4" fill="#9CA3AF" /><polyline points="876.7411727256447,281.68559025985206 909.3641938503638,274.9246340232925 1164,274.9246340232925" fill="none" stroke="#6B7280" stroke-width="2.5" /><text x="1164" y="266.9246340232925" text-anchor="end" font-family="'Noto Sans TC','PingFang TC','Microsoft JhengHei',sans-serif" font-size="22" font-weight="400" fill="#6B7280">Google</text><text x="1164" y="295.9246340232925" text-anchor="end" font-family="'Noto Sans TC','PingFang TC','Microsoft JhengHei',sans-serif" font-size="21" font-weight="400" fill="#6B7280">40.9%</text><text x="1144" y="680" text-anchor="end" font-family="'Noto Sans TC','PingFang TC','Microsoft JhengHei',sans-serif" font-size="19" font-weight="400" fill="#9CA3AF">Data snapshot: 2026-03-21</text></svg>