<svg xmlns="http://www.w3.org/2000/svg" width="1200" height="700" viewBox="0 0 1200 700"><rect width="100%" height="100%" fill="#EDEDED" /><text x="1144" y="72" text-anchor="end" font-family="'Noto Sans TC','PingFang TC','Microsoft JhengHei',sans-serif" font-size="24" font-weight="400" fill="#9CA3AF">n = 18,841 requests</text><path d="M 610 360 L 610 66 A 294 294 0 0 1 787.7206396918156 594.2037024206318 Z" fill="#F44336" /><path d="M 610 360 L 787.7206396918156 594.2037024206318 A 294 294 0 0 1 495.05560930643696 630.5989413284641 Z" fill="#FFC107" /><path d="M 610 360 L 495.05560930643696 630.5989413284641 A 294 294 0 0 1 354.397606641602 505.2701500978737 Z" fill="#3DAA57" /><path d="M 610 360 L 354.397606641602 505.2701500978737 A 294 294 0 0 1 316.0018892334904 361.0539761492336 Z" fill="#FF7A00" /><path d="M 610 360 L 316.0018892334904 361.0539761492336 A 294 294 0 0 1 349.62775243407873 223.46321851797367 Z" fill="#4CB5BE" /><path d="M 610 360 L 349.62775243407873 223.46321851797367 A 294 294 0 0 1 380.11534803880267 176.72685195948873 Z" fill="#6F9EE8" /><path d="M 610 360 L 380.11534803880267 176.72685195948873 A 294 294 0 0 1 403.0921661389533 151.13365927720784 Z" fill="#E97A75" /><path d="M 610 360 L 403.0921661389533 151.13365927720784 A 294 294 0 0 1 427.82136523744543 129.2470042750219 Z" fill="#F2CC55" /><path d="M 610 360 L 427.82136523744543 129.2470042750219 A 294 294 0 0 1 453.76791785318585 110.94671953963123 Z" fill="#67C587" /><path d="M 610 360 L 453.76791785318585 110.94671953963123 A 294 294 0 0 1 609.9999999999997 66 Z" fill="#C5CCD8" /><circle cx="533.1391588681773" cy="92.8363589473509" r="4" fill="#9CA3AF" /><polyline points="533.1391588681773,92.8363589473509 276,69.77187194999993 36,69.77187194999993" fill="none" stroke="#6B7280" stroke-width="2.5" /><text x="36" y="61.771871949999934" text-anchor="start" font-family="'Noto Sans TC','PingFang TC','Microsoft JhengHei',sans-serif" font-size="22" font-weight="400" fill="#6B7280">Others (&lt;1%)</text><text x="36" y="90.77187194999993" text-anchor="start" font-family="'Noto Sans TC','PingFang TC','Microsoft JhengHei',sans-serif" font-size="21" font-weight="400" fill="#6B7280">8.9%</text><circle cx="449.76932474504076" cy="132.82136828623206" r="4" fill="#9CA3AF" /><polyline points="449.76932474504076,132.82136828623206 276,129.77187194999993 36,129.77187194999993" fill="none" stroke="#6B7280" stroke-width="2.5" /><text x="36" y="121.77187194999993" text-anchor="start" font-family="'Noto Sans TC','PingFang TC','Microsoft JhengHei',sans-serif" font-size="22" font-weight="400" fill="#6B7280">Taiwan Academic (TANet)</text><text x="36" y="150.77187194999993" text-anchor="start" font-family="'Noto Sans TC','PingFang TC','Microsoft JhengHei',sans-serif" font-size="21" font-weight="400" fill="#6B7280">1.7%</text><circle cx="425.7533441624713" cy="151.82418533199572" r="4" fill="#9CA3AF" /><polyline points="425.7533441624713,151.82418533199572 276,189.77187194999993 36,189.77187194999993" fill="none" stroke="#6B7280" stroke-width="2.5" /><text x="36" y="181.77187194999993" text-anchor="start" font-family="'Noto Sans TC','PingFang TC','Microsoft JhengHei',sans-serif" font-size="22" font-weight="400" fill="#6B7280">Microsoft</text><text x="36" y="210.77187194999993" text-anchor="start" font-family="'Noto Sans TC','PingFang TC','Microsoft JhengHei',sans-serif" font-size="21" font-weight="400" fill="#6B7280">1.8%</text><circle cx="403.1350747236399" cy="174.28273453874587" r="4" fill="#9CA3AF" /><polyline points="403.1350747236399,174.28273453874587 276,249.77187194999993 36,249.77187194999993" fill="none" stroke="#6B7280" stroke-width="2.5" /><text x="36" y="241.77187194999993" text-anchor="start" font-family="'Noto Sans TC','PingFang TC','Microsoft JhengHei',sans-serif" font-size="22" font-weight="400" fill="#6B7280">Fastly</text><text x="36" y="270.77187194999993" text-anchor="start" font-family="'Noto Sans TC','PingFang TC','Microsoft JhengHei',sans-serif" font-size="21" font-weight="400" fill="#6B7280">1.9%</text><circle cx="377.1610250856404" cy="208.1118445670294" r="4" fill="#9CA3AF" /><polyline points="377.1610250856404,208.1118445670294 276,309.77187194999993 36,309.77187194999993" fill="none" stroke="#6B7280" stroke-width="2.5" /><text x="36" y="301.77187194999993" text-anchor="start" font-family="'Noto Sans TC','PingFang TC','Microsoft JhengHei',sans-serif" font-size="22" font-weight="400" fill="#6B7280">Akamai</text><text x="36" y="330.77187194999993" text-anchor="start" font-family="'Noto Sans TC','PingFang TC','Microsoft JhengHei',sans-serif" font-size="21" font-weight="400" fill="#6B7280">3.0%</text><circle cx="339.9477113934622" cy="294.001807461331" r="4" fill="#9CA3AF" /><polyline points="339.9477113934622,294.001807461331 276,369.77187194999993 36,369.77187194999993" fill="none" stroke="#6B7280" stroke-width="2.5" /><text x="36" y="361.77187194999993" text-anchor="start" font-family="'Noto Sans TC','PingFang TC','Microsoft JhengHei',sans-serif" font-size="22" font-weight="400" fill="#6B7280">Facebook</text><text x="36" y="390.77187194999993" text-anchor="start" font-family="'Noto Sans TC','PingFang TC','Microsoft JhengHei',sans-serif" font-size="21" font-weight="400" fill="#6B7280">7.7%</text><circle cx="341.3579881410107" cy="431.52251019332755" r="4" fill="#9CA3AF" /><polyline points="341.3579881410107,431.52251019332755 276,437.69711538987383 36,437.69711538987383" fill="none" stroke="#6B7280" stroke-width="2.5" /><text x="36" y="429.69711538987383" text-anchor="start" font-family="'Noto Sans TC','PingFang TC','Microsoft JhengHei',sans-serif" font-size="22" font-weight="400" fill="#6B7280">Data Communication (CHT)</text><text x="36" y="458.69711538987383" text-anchor="start" font-family="'Noto Sans TC','PingFang TC','Microsoft JhengHei',sans-serif" font-size="21" font-weight="400" fill="#6B7280">8.2%</text><circle cx="425.0601354714557" cy="567.5602238102563" r="4" fill="#9CA3AF" /><polyline points="425.0601354714557,567.5602238102563 276,585.4790920528683 36,585.4790920528683" fill="none" stroke="#6B7280" stroke-width="2.5" /><text x="36" y="577.4790920528683" text-anchor="start" font-family="'Noto Sans TC','PingFang TC','Microsoft JhengHei',sans-serif" font-size="22" font-weight="400" fill="#6B7280">Amazon</text><text x="36" y="606.4790920528683" text-anchor="start" font-family="'Noto Sans TC','PingFang TC','Microsoft JhengHei',sans-serif" font-size="21" font-weight="400" fill="#6B7280">10.4%</text><circle cx="644.307263359424" cy="635.8749928514492" r="4" fill="#9CA3AF" /><polyline points="644.307263359424,635.8749928514492 276,659.6915389968981 36,659.6915389968981" fill="none" stroke="#6B7280" stroke-width="2.5" /><text x="36" y="651.6915389968981" text-anchor="start" font-family="'Noto Sans TC','PingFang TC','Microsoft JhengHei',sans-serif" font-size="22" font-weight="400" fill="#6B7280">Cloudflare</text><text x="36" y="680.6915389968981" text-anchor="start" font-family="'Noto Sans TC','PingFang TC','Microsoft JhengHei',sans-serif" font-size="21" font-weight="400" fill="#6B7280">16.7%</text><circle cx="873.4855807343001" cy="271.3470319441664" r="4" fill="#9CA3AF" /><polyline points="873.4855807343001,271.3470319441664 905.7104359320202,263.69353829905845 1164,263.69353829905845" fill="none" stroke="#6B7280" stroke-width="2.5" /><text x="1164" y="255.69353829905845" text-anchor="end" font-family="'Noto Sans TC','PingFang TC','Microsoft JhengHei',sans-serif" font-size="22" font-weight="400" fill="#6B7280">Google</text><text x="1164" y="284.69353829905845" text-anchor="end" font-family="'Noto Sans TC','PingFang TC','Microsoft JhengHei',sans-serif" font-size="21" font-weight="400" fill="#6B7280">39.7%</text><text x="1144" y="680" text-anchor="end" font-family="'Noto Sans TC','PingFang TC','Microsoft JhengHei',sans-serif" font-size="19" font-weight="400" fill="#9CA3AF">Data snapshot: 2026-07-20</text></svg>